<svg width="362" height="111" viewBox="0 0 362 111" fill="none" xmlns="http://www.w3.org/2000/svg">
<path d="M0.0640002 103.96V5.03199C0.0640002 3.59199 0.736 2.43999 2.08 1.57599C3.424 0.615993 5.2 0.135994 7.408 0.135994C9.616 0.135994 11.44 0.615993 12.88 1.57599C14.416 2.43999 15.184 3.59199 15.184 5.03199V69.112L45.28 41.464C46.144 40.6 47.2 40.168 48.448 40.168C50.08 40.168 51.712 40.936 53.344 42.472C54.976 44.008 55.792 45.64 55.792 47.368C55.792 48.616 55.36 49.672 54.496 50.536L35.92 67.096L58.528 99.64C59.104 100.504 59.392 101.368 59.392 102.232C59.392 103.96 58.432 105.688 56.512 107.416C54.592 109.048 52.72 109.864 50.896 109.864C49.264 109.864 47.92 109.144 46.864 107.704L25.696 76.456L15.184 85.96V103.96C15.184 105.208 14.416 106.36 12.88 107.416C11.344 108.472 9.52 109 7.408 109C5.296 109 3.52 108.472 2.08 107.416C0.736 106.36 0.0640002 105.208 0.0640002 103.96ZM70.4035 103.96V5.03199C70.4035 3.59199 71.0755 2.43999 72.4195 1.57599C73.8595 0.615993 75.6835 0.135994 77.8915 0.135994C80.0035 0.135994 81.7795 0.615993 83.2195 1.57599C84.7555 2.43999 85.5235 3.59199 85.5235 5.03199V103.96C85.5235 105.208 84.7555 106.36 83.2195 107.416C81.6835 108.472 79.9075 109 77.8915 109C75.7795 109 74.0035 108.472 72.5635 107.416C71.1235 106.36 70.4035 105.208 70.4035 103.96ZM101.421 15.688C101.421 13.48 102.285 11.608 104.013 10.072C105.741 8.536 107.805 7.768 110.205 7.768C112.605 7.768 114.669 8.536 116.397 10.072C118.125 11.608 118.989 13.48 118.989 15.688C118.989 17.8 118.125 19.672 116.397 21.304C114.669 22.84 112.605 23.608 110.205 23.608C107.805 23.608 105.741 22.84 104.013 21.304C102.285 19.672 101.421 17.8 101.421 15.688ZM102.717 103.96V45.64C102.717 44.2 103.389 43.048 104.733 42.184C106.173 41.224 107.997 40.744 110.205 40.744C112.413 40.744 114.237 41.224 115.677 42.184C117.117 43.048 117.837 44.2 117.837 45.64V103.96C117.837 105.208 117.069 106.36 115.533 107.416C114.093 108.472 112.317 109 110.205 109C108.093 109 106.317 108.472 104.877 107.416C103.437 106.36 102.717 105.208 102.717 103.96ZM133.798 103.96V5.03199C133.798 3.59199 134.47 2.43999 135.814 1.57599C137.158 0.615993 138.934 0.135994 141.142 0.135994C143.35 0.135994 145.174 0.615993 146.614 1.57599C148.15 2.43999 148.918 3.59199 148.918 5.03199V69.112L179.014 41.464C179.878 40.6 180.934 40.168 182.182 40.168C183.814 40.168 185.446 40.936 187.078 42.472C188.71 44.008 189.526 45.64 189.526 47.368C189.526 48.616 189.094 49.672 188.23 50.536L169.654 67.096L192.262 99.64C192.838 100.504 193.126 101.368 193.126 102.232C193.126 103.96 192.166 105.688 190.246 107.416C188.326 109.048 186.454 109.864 184.63 109.864C182.998 109.864 181.654 109.144 180.598 107.704L159.43 76.456L148.918 85.96V103.96C148.918 105.208 148.15 106.36 146.614 107.416C145.078 108.472 143.254 109 141.142 109C139.03 109 137.254 108.472 135.814 107.416C134.47 106.36 133.798 105.208 133.798 103.96ZM204.138 103.96V5.03199C204.138 3.59199 204.81 2.43999 206.154 1.57599C207.594 0.615993 209.418 0.135994 211.626 0.135994C213.738 0.135994 215.514 0.615993 216.954 1.57599C218.49 2.43999 219.258 3.59199 219.258 5.03199V103.96C219.258 105.208 218.49 106.36 216.954 107.416C215.418 108.472 213.642 109 211.626 109C209.514 109 207.738 108.472 206.298 107.416C204.858 106.36 204.138 105.208 204.138 103.96ZM232.131 91.144C232.131 83.464 235.011 78.136 240.771 75.16C246.531 72.088 254.883 70.552 265.827 70.552H272.163V67.96C272.163 63.736 270.963 60.088 268.563 57.016C266.259 53.944 262.707 52.408 257.907 52.408C253.779 52.408 250.131 53.128 246.963 54.568C243.891 56.008 242.211 56.728 241.923 56.728C240.291 56.728 238.947 55.96 237.891 54.424C236.931 52.792 236.451 51.016 236.451 49.096C236.451 46.6 238.755 44.44 243.363 42.616C248.067 40.792 253.011 39.88 258.195 39.88C268.083 39.88 275.379 42.568 280.083 47.944C284.883 53.224 287.283 59.848 287.283 67.816V103.96C287.283 105.304 286.563 106.504 285.123 107.56C283.779 108.52 282.051 109 279.939 109C278.019 109 276.387 108.52 275.043 107.56C273.699 106.504 273.027 105.304 273.027 103.96V98.92C266.595 106.408 259.347 110.152 251.283 110.152C245.715 110.152 241.107 108.52 237.459 105.256C233.907 101.992 232.131 97.288 232.131 91.144ZM247.395 89.272C247.395 92.344 248.259 94.696 249.987 96.328C251.715 97.864 253.971 98.632 256.755 98.632C260.403 98.632 263.859 97.096 267.123 94.024C270.483 90.952 272.163 87.688 272.163 84.232V78.904H268.563C264.243 78.904 260.691 79.096 257.907 79.48C255.219 79.864 252.771 80.872 250.563 82.504C248.451 84.136 247.395 86.392 247.395 89.272ZM302.686 103.96V45.64C302.686 44.2 303.358 43.048 304.702 42.184C306.142 41.224 307.966 40.744 310.174 40.744C312.094 40.744 313.678 41.224 314.926 42.184C316.27 43.048 316.942 44.2 316.942 45.64V50.824C318.478 47.752 320.926 45.16 324.286 43.048C327.742 40.936 331.726 39.88 336.238 39.88C343.054 39.88 348.91 42.664 353.806 48.232C358.798 53.8 361.294 60.472 361.294 68.248V103.96C361.294 105.496 360.526 106.744 358.99 107.704C357.55 108.568 355.774 109 353.662 109C351.742 109 350.014 108.568 348.478 107.704C346.942 106.744 346.174 105.496 346.174 103.96V68.248C346.174 64.408 344.734 60.952 341.854 57.88C338.974 54.808 335.566 53.272 331.63 53.272C327.982 53.272 324.766 54.664 321.982 57.448C319.198 60.136 317.806 63.736 317.806 68.248V103.96C317.806 105.208 317.038 106.36 315.502 107.416C313.966 108.472 312.19 109 310.174 109C308.062 109 306.286 108.472 304.846 107.416C303.406 106.36 302.686 105.208 302.686 103.96Z" fill="white"/>
</svg>
